 http://www.imdb.com/title/tt1876277/

Source: Into.The.White.2012.720p.BluRay.DTS.x264-PublicHD Thanks!

Subs: Bulgarian, Czech, Danish, Dutch, English, Finnish, Norwegian, Spanish.

Sample and Screens included.

General
Complete name                    : Into The White-720p MP4 AAC x264 BRRip 2012-CC.mp4
Format                           : MPEG-4
Format profile                   : Base Media
Codec ID                         : isom
File size                        : 2.73 GiB
Duration                         : 1h 39mn
Overall bit rate                 : 3 915 Kbps
Encoded date                     : UTC 2012-09-02 09:05:15

Video
ID                               : 1
Format                           : AVC
Format/Info                      : Advanced Video Codec
Format profile                   : High@L3.1
Format settings, CABAC           : Yes
Format settings, ReFrames        : 5 frames
Codec ID                         : avc1
Codec ID/Info                    : Advanced Video Coding
Duration                         : 1h 39mn
Bit rate mode                    : Variable
Bit rate                         : 3 535 Kbps
Nominal bit rate                 : 3 625 Kbps
Maximum bit rate                 : 26.7 Mbps
Width                            : 1 280 pixels
Height                           : 544 pixels
Display aspect ratio             : 2.35:1
Frame rate mode                  : Variable
Frame rate                       : 25.000 fps
Minimum frame rate               : 20.000 fps
Maximum frame rate               : 25.000 fps
Resolution                       : 24 bits
Colorimetry                      : 4:2:0
Scan type                        : Progressive
Bits/(Pixel*Frame)               : 0.203
Stream size                      : 2.47 GiB (90%)
Writing library                  : x264 core 112

Audio
ID                               : 2
Format                           : AAC
Format/Info                      : Advanced Audio Codec
Format version                   : Version 4
Format profile                   : LC
Format settings, SBR             : No
Codec ID                         : 40
Duration                         : 1h 39mn
Bit rate mode                    : Variable
Bit rate                         : 375 Kbps
Maximum bit rate                 : 712 Kbps
Channel(s)                       : 6 channels
Channel positions                : Front: L C R, Rear: L R, LFE
Sampling rate                    : 48.0 KHz
Resolution                       : 16 bits
Stream size                      : 268 MiB (10%)
Language                         : English

Enjoy....